<svg xmlns="http://www.w3.org/2000/svg" width="1050" height="560" viewBox="0 0 1050 560">
<rect width="100%" height="100%" fill="#ffffff"/>
<style>
text { font-family: "Noto Sans CJK SC", "Microsoft YaHei", Arial, sans-serif; fill: #1f2937; }
.title { font-size: 24px; font-weight: 700; }
.label { font-size: 14px; }
.small { font-size: 12px; fill: #4b5563; }
.axis { stroke: #9ca3af; stroke-width: 1; }
.grid { stroke: #e5e7eb; stroke-width: 1; }
</style>
<text x="90" y="45" class="title">Arch DSE：120 个 episode 的最佳 EDP 分布</text>
<text x="90" y="70" class="small">纵轴为对数刻度；点越低表示该 episode 找到的 mapping 越好。</text>
<line x1="90" y1="462.3" x2="1000" y2="462.3" class="grid"/>
<text x="80" y="466.3" text-anchor="end" class="small">10</text>
<line x1="90" y1="399.6" x2="1000" y2="399.6" class="grid"/>
<text x="80" y="403.6" text-anchor="end" class="small">30</text>
<line x1="90" y1="330.8" x2="1000" y2="330.8" class="grid"/>
<text x="80" y="334.8" text-anchor="end" class="small">100</text>
<line x1="90" y1="268.1" x2="1000" y2="268.1" class="grid"/>
<text x="80" y="272.1" text-anchor="end" class="small">300</text>
<line x1="90" y1="199.4" x2="1000" y2="199.4" class="grid"/>
<text x="80" y="203.4" text-anchor="end" class="small">1000</text>
<line x1="90" y1="136.7" x2="1000" y2="136.7" class="grid"/>
<text x="80" y="140.7" text-anchor="end" class="small">3000</text>
<line x1="90" y1="97.1" x2="1000" y2="97.1" class="grid"/>
<text x="80" y="101.1" text-anchor="end" class="small">6000</text>
<line x1="90" y1="85" x2="90" y2="490" class="axis"/>
<line x1="90" y1="490" x2="1000" y2="490" class="axis"/>
<circle cx="90.0" cy="276.7" r="3.2" fill="#94a3b8" opacity="0.85"/>
<circle cx="97.6" cy="276.7" r="3.2" fill="#94a3b8" opacity="0.85"/>
<circle cx="105.3" cy="333.1" r="3.2" fill="#2563eb" opacity="0.85"/>
<circle cx="112.9" cy="337.9" r="3.2" fill="#2563eb" opacity="0.85"/>
<circle cx="120.6" cy="337.9" r="3.2" fill="#2563eb" opacity="0.85"/>
<circle cx="128.2" cy="448.6" r="3.2" fill="#2563eb" opacity="0.85"/>
<circle cx="135.9" cy="477.3" r="3.2" fill="#2563eb" opacity="0.85"/>
<circle cx="143.5" cy="477.3" r="3.2" fill="#2563eb" opacity="0.85"/>
<circle cx="151.2" cy="477.3" r="3.2" fill="#2563eb" opacity="0.85"/>
<circle cx="158.8" cy="477.3" r="3.2" fill="#2563eb" opacity="0.85"/>
<circle cx="166.5" cy="116.3" r="3.2" fill="#94a3b8" opacity="0.85"/>
<circle cx="174.1" cy="129.1" r="3.2" fill="#94a3b8" opacity="0.85"/>
<circle cx="181.8" cy="129.1" r="3.2" fill="#94a3b8" opacity="0.85"/>
<circle cx="189.4" cy="199.8" r="3.2" fill="#94a3b8" opacity="0.85"/>
<circle cx="197.1" cy="199.8" r="3.2" fill="#94a3b8" opacity="0.85"/>
<circle cx="204.7" cy="268.2" r="3.2" fill="#94a3b8" opacity="0.85"/>
<circle cx="212.4" cy="342.5" r="3.2" fill="#2563eb" opacity="0.85"/>
<circle cx="220.0" cy="346.6" r="3.2" fill="#2563eb" opacity="0.85"/>
<circle cx="227.6" cy="452.1" r="3.2" fill="#2563eb" opacity="0.85"/>
<circle cx="235.3" cy="452.1" r="3.2" fill="#2563eb" opacity="0.85"/>
<circle cx="242.9" cy="164.7" r="3.2" fill="#94a3b8" opacity="0.85"/>
<circle cx="250.6" cy="259.5" r="3.2" fill="#94a3b8" opacity="0.85"/>
<circle cx="258.2" cy="275.5" r="3.2" fill="#94a3b8" opacity="0.85"/>
<circle cx="265.9" cy="285.7" r="3.2" fill="#94a3b8" opacity="0.85"/>
<circle cx="273.5" cy="313.3" r="3.2" fill="#2563eb" opacity="0.85"/>
<circle cx="281.2" cy="376.9" r="3.2" fill="#2563eb" opacity="0.85"/>
<circle cx="288.8" cy="376.9" r="3.2" fill="#2563eb" opacity="0.85"/>
<circle cx="296.5" cy="376.9" r="3.2" fill="#2563eb" opacity="0.85"/>
<circle cx="304.1" cy="376.9" r="3.2" fill="#2563eb" opacity="0.85"/>
<circle cx="311.8" cy="376.9" r="3.2" fill="#2563eb" opacity="0.85"/>
<circle cx="319.4" cy="131.8" r="3.2" fill="#94a3b8" opacity="0.85"/>
<circle cx="327.1" cy="148.8" r="3.2" fill="#94a3b8" opacity="0.85"/>
<circle cx="334.7" cy="148.8" r="3.2" fill="#94a3b8" opacity="0.85"/>
<circle cx="342.4" cy="148.8" r="3.2" fill="#94a3b8" opacity="0.85"/>
<circle cx="350.0" cy="148.8" r="3.2" fill="#94a3b8" opacity="0.85"/>
<circle cx="357.6" cy="436.8" r="3.2" fill="#2563eb" opacity="0.85"/>
<circle cx="365.3" cy="436.9" r="3.2" fill="#2563eb" opacity="0.85"/>
<circle cx="372.9" cy="436.9" r="3.2" fill="#2563eb" opacity="0.85"/>
<circle cx="380.6" cy="436.9" r="3.2" fill="#2563eb" opacity="0.85"/>
<circle cx="388.2" cy="436.9" r="3.2" fill="#2563eb" opacity="0.85"/>
<circle cx="395.9" cy="333.3" r="3.2" fill="#2563eb" opacity="0.85"/>
<circle cx="403.5" cy="333.3" r="3.2" fill="#2563eb" opacity="0.85"/>
<circle cx="411.2" cy="333.3" r="3.2" fill="#2563eb" opacity="0.85"/>
<circle cx="418.8" cy="333.3" r="3.2" fill="#2563eb" opacity="0.85"/>
<circle cx="426.5" cy="333.3" r="3.2" fill="#2563eb" opacity="0.85"/>
<circle cx="434.1" cy="418.7" r="3.2" fill="#2563eb" opacity="0.85"/>
<circle cx="441.8" cy="418.7" r="3.2" fill="#2563eb" opacity="0.85"/>
<circle cx="449.4" cy="420.0" r="3.2" fill="#2563eb" opacity="0.85"/>
<circle cx="457.1" cy="420.0" r="3.2" fill="#2563eb" opacity="0.85"/>
<circle cx="464.7" cy="420.0" r="3.2" fill="#2563eb" opacity="0.85"/>
<circle cx="472.4" cy="213.4" r="3.2" fill="#94a3b8" opacity="0.85"/>
<circle cx="480.0" cy="217.4" r="3.2" fill="#94a3b8" opacity="0.85"/>
<circle cx="487.6" cy="283.5" r="3.2" fill="#94a3b8" opacity="0.85"/>
<circle cx="495.3" cy="385.7" r="3.2" fill="#2563eb" opacity="0.85"/>
<circle cx="502.9" cy="385.7" r="3.2" fill="#2563eb" opacity="0.85"/>
<circle cx="510.6" cy="169.2" r="3.2" fill="#94a3b8" opacity="0.85"/>
<circle cx="518.2" cy="261.5" r="3.2" fill="#94a3b8" opacity="0.85"/>
<circle cx="525.9" cy="307.2" r="3.2" fill="#94a3b8" opacity="0.85"/>
<circle cx="533.5" cy="367.3" r="3.2" fill="#2563eb" opacity="0.85"/>
<circle cx="541.2" cy="367.3" r="3.2" fill="#2563eb" opacity="0.85"/>
<circle cx="548.8" cy="153.8" r="3.2" fill="#94a3b8" opacity="0.85"/>
<circle cx="556.5" cy="168.7" r="3.2" fill="#94a3b8" opacity="0.85"/>
<circle cx="564.1" cy="168.7" r="3.2" fill="#94a3b8" opacity="0.85"/>
<circle cx="571.8" cy="239.1" r="3.2" fill="#94a3b8" opacity="0.85"/>
<circle cx="579.4" cy="282.8" r="3.2" fill="#94a3b8" opacity="0.85"/>
<circle cx="587.1" cy="287.5" r="3.2" fill="#94a3b8" opacity="0.85"/>
<circle cx="594.7" cy="329.8" r="3.2" fill="#2563eb" opacity="0.85"/>
<circle cx="602.4" cy="329.8" r="3.2" fill="#2563eb" opacity="0.85"/>
<circle cx="610.0" cy="395.9" r="3.2" fill="#2563eb" opacity="0.85"/>
<circle cx="617.6" cy="469.2" r="3.2" fill="#2563eb" opacity="0.85"/>
<circle cx="625.3" cy="250.1" r="3.2" fill="#94a3b8" opacity="0.85"/>
<circle cx="632.9" cy="372.7" r="3.2" fill="#2563eb" opacity="0.85"/>
<circle cx="640.6" cy="388.3" r="3.2" fill="#2563eb" opacity="0.85"/>
<circle cx="648.2" cy="390.9" r="3.2" fill="#2563eb" opacity="0.85"/>
<circle cx="655.9" cy="390.9" r="3.2" fill="#2563eb" opacity="0.85"/>
<circle cx="663.5" cy="237.8" r="3.2" fill="#94a3b8" opacity="0.85"/>
<circle cx="671.2" cy="237.8" r="3.2" fill="#94a3b8" opacity="0.85"/>
<circle cx="678.8" cy="336.1" r="3.2" fill="#2563eb" opacity="0.85"/>
<circle cx="686.5" cy="336.1" r="3.2" fill="#2563eb" opacity="0.85"/>
<circle cx="694.1" cy="336.1" r="3.2" fill="#2563eb" opacity="0.85"/>
<circle cx="709.4" cy="95.4" r="3.2" fill="#94a3b8" opacity="0.85"/>
<circle cx="717.1" cy="190.6" r="3.2" fill="#94a3b8" opacity="0.85"/>
<circle cx="724.7" cy="201.8" r="3.2" fill="#94a3b8" opacity="0.85"/>
<circle cx="732.4" cy="248.1" r="3.2" fill="#94a3b8" opacity="0.85"/>
<circle cx="740.0" cy="196.7" r="3.2" fill="#94a3b8" opacity="0.85"/>
<circle cx="747.6" cy="400.8" r="3.2" fill="#2563eb" opacity="0.85"/>
<circle cx="755.3" cy="401.0" r="3.2" fill="#2563eb" opacity="0.85"/>
<circle cx="762.9" cy="401.0" r="3.2" fill="#2563eb" opacity="0.85"/>
<circle cx="770.6" cy="401.0" r="3.2" fill="#2563eb" opacity="0.85"/>
<circle cx="778.2" cy="212.8" r="3.2" fill="#94a3b8" opacity="0.85"/>
<circle cx="785.9" cy="213.0" r="3.2" fill="#94a3b8" opacity="0.85"/>
<circle cx="793.5" cy="276.6" r="3.2" fill="#94a3b8" opacity="0.85"/>
<circle cx="801.2" cy="329.7" r="3.2" fill="#2563eb" opacity="0.85"/>
<circle cx="808.8" cy="330.7" r="3.2" fill="#2563eb" opacity="0.85"/>
<circle cx="816.5" cy="154.8" r="3.2" fill="#94a3b8" opacity="0.85"/>
<circle cx="824.1" cy="268.7" r="3.2" fill="#94a3b8" opacity="0.85"/>
<circle cx="831.8" cy="268.7" r="3.2" fill="#94a3b8" opacity="0.85"/>
<circle cx="839.4" cy="268.7" r="3.2" fill="#94a3b8" opacity="0.85"/>
<circle cx="847.1" cy="268.7" r="3.2" fill="#94a3b8" opacity="0.85"/>
<circle cx="854.7" cy="212.3" r="3.2" fill="#94a3b8" opacity="0.85"/>
<circle cx="862.4" cy="322.0" r="3.2" fill="#2563eb" opacity="0.85"/>
<circle cx="870.0" cy="322.0" r="3.2" fill="#2563eb" opacity="0.85"/>
<circle cx="877.6" cy="322.0" r="3.2" fill="#2563eb" opacity="0.85"/>
<circle cx="885.3" cy="322.0" r="3.2" fill="#2563eb" opacity="0.85"/>
<circle cx="892.9" cy="396.2" r="3.2" fill="#2563eb" opacity="0.85"/>
<circle cx="900.6" cy="399.5" r="3.2" fill="#2563eb" opacity="0.85"/>
<circle cx="908.2" cy="399.5" r="3.2" fill="#2563eb" opacity="0.85"/>
<circle cx="915.9" cy="402.0" r="3.2" fill="#2563eb" opacity="0.85"/>
<circle cx="923.5" cy="402.0" r="3.2" fill="#2563eb" opacity="0.85"/>
<circle cx="931.2" cy="269.2" r="3.2" fill="#94a3b8" opacity="0.85"/>
<circle cx="938.8" cy="269.2" r="3.2" fill="#94a3b8" opacity="0.85"/>
<circle cx="946.5" cy="272.4" r="3.2" fill="#94a3b8" opacity="0.85"/>
<circle cx="954.1" cy="308.7" r="3.2" fill="#94a3b8" opacity="0.85"/>
<circle cx="961.8" cy="308.7" r="3.2" fill="#94a3b8" opacity="0.85"/>
<circle cx="969.4" cy="362.3" r="3.2" fill="#2563eb" opacity="0.85"/>
<circle cx="977.1" cy="364.1" r="3.2" fill="#2563eb" opacity="0.85"/>
<circle cx="984.7" cy="365.0" r="3.2" fill="#2563eb" opacity="0.85"/>
<circle cx="992.4" cy="365.0" r="3.2" fill="#2563eb" opacity="0.85"/>
<circle cx="1000.0" cy="365.0" r="3.2" fill="#2563eb" opacity="0.85"/>
<line x1="90" y1="310.2" x2="1000" y2="310.2" stroke="#ef4444" stroke-width="2" stroke-dasharray="6 5"/>
<text x="995" y="303.2" text-anchor="end" class="small">本地 DOSA 平均 143.5</text>
<text x="545.0" y="542" text-anchor="middle" class="small">episode；单位：uJ*Mcyc</text>
</svg>
