<svg xmlns="http://www.w3.org/2000/svg" width="1050" height="820" viewBox="0 0 1050 820">
<rect width="100%" height="100%" fill="#ffffff"/>
<style>
text { font-family: "Noto Sans CJK SC", "Microsoft YaHei", Arial, sans-serif; fill: #1f2937; }
.title { font-size: 24px; font-weight: 700; }
.label { font-size: 14px; }
.small { font-size: 12px; fill: #4b5563; }
.axis { stroke: #9ca3af; stroke-width: 1; }
.grid { stroke: #e5e7eb; stroke-width: 1; }
</style>
<text x="165" y="45" class="title">Arch DSE：每层相对本地 DOSA 的提升倍数</text>
<text x="165" y="70" class="small">DOSA/EoM 大于 1 表示本地 EoM 更好；横轴为对数刻度。</text>
<line x1="211.2" y1="85" x2="211.2" y2="760" class="grid"/>
<text x="211.2" y="782" text-anchor="middle" class="small">0.1x</text>
<line x1="300.8" y1="85" x2="300.8" y2="760" class="grid"/>
<text x="300.8" y="782" text-anchor="middle" class="small">0.2x</text>
<line x1="419.4" y1="85" x2="419.4" y2="760" class="grid"/>
<text x="419.4" y="782" text-anchor="middle" class="small">0.5x</text>
<line x1="509.1" y1="85" x2="509.1" y2="760" class="grid"/>
<text x="509.1" y="782" text-anchor="middle" class="small">1x</text>
<line x1="598.8" y1="85" x2="598.8" y2="760" class="grid"/>
<text x="598.8" y="782" text-anchor="middle" class="small">2x</text>
<line x1="717.3" y1="85" x2="717.3" y2="760" class="grid"/>
<text x="717.3" y="782" text-anchor="middle" class="small">5x</text>
<line x1="807.0" y1="85" x2="807.0" y2="760" class="grid"/>
<text x="807.0" y="782" text-anchor="middle" class="small">10x</text>
<line x1="949.2" y1="85" x2="949.2" y2="760" class="grid"/>
<text x="949.2" y="782" text-anchor="middle" class="small">30x</text>
<line x1="509.1" y1="85" x2="509.1" y2="760" stroke="#111827" stroke-width="1.5"/>
<text x="157" y="101.9" text-anchor="end" class="small">_outputs_input.77</text>
<rect x="181.9" y="92.0" width="327.2" height="14.1" fill="#dc2626" rx="3"/>
<text x="175.9" y="102.7" text-anchor="end" class="small">0.08x</text>
<text x="157" y="130.0" text-anchor="end" class="small">_outputs_input.8</text>
<rect x="204.1" y="120.2" width="305.0" height="14.1" fill="#dc2626" rx="3"/>
<text x="198.1" y="130.8" text-anchor="end" class="small">0.09x</text>
<text x="157" y="158.1" text-anchor="end" class="small">_outputs_input.2</text>
<rect x="206.8" y="148.3" width="302.3" height="14.1" fill="#dc2626" rx="3"/>
<text x="200.8" y="159.0" text-anchor="end" class="small">0.10x</text>
<text x="157" y="186.2" text-anchor="end" class="small">_outputs_input.40</text>
<rect x="272.9" y="176.4" width="236.2" height="14.1" fill="#dc2626" rx="3"/>
<text x="266.9" y="187.1" text-anchor="end" class="small">0.16x</text>
<text x="157" y="214.4" text-anchor="end" class="small">_outputs_input.5</text>
<rect x="286.5" y="204.5" width="222.6" height="14.1" fill="#dc2626" rx="3"/>
<text x="280.5" y="215.2" text-anchor="end" class="small">0.18x</text>
<text x="157" y="242.5" text-anchor="end" class="small">_outputs_input.125</text>
<rect x="323.5" y="232.7" width="185.6" height="14.1" fill="#dc2626" rx="3"/>
<text x="317.5" y="243.3" text-anchor="end" class="small">0.24x</text>
<text x="157" y="270.6" text-anchor="end" class="small">_outputs_input.73</text>
<rect x="354.1" y="260.8" width="155.0" height="14.1" fill="#dc2626" rx="3"/>
<text x="348.1" y="271.5" text-anchor="end" class="small">0.30x</text>
<text x="157" y="298.8" text-anchor="end" class="small">_outputs_input.36</text>
<rect x="364.6" y="288.9" width="144.4" height="14.1" fill="#dc2626" rx="3"/>
<text x="358.6" y="299.6" text-anchor="end" class="small">0.33x</text>
<text x="157" y="326.9" text-anchor="end" class="small">_outputs_input.128</text>
<rect x="420.2" y="317.0" width="88.9" height="14.1" fill="#dc2626" rx="3"/>
<text x="414.2" y="327.7" text-anchor="end" class="small">0.50x</text>
<text x="157" y="355.0" text-anchor="end" class="small">_outputs_input.46</text>
<rect x="422.7" y="345.2" width="86.4" height="14.1" fill="#dc2626" rx="3"/>
<text x="416.7" y="355.8" text-anchor="end" class="small">0.51x</text>
<text x="157" y="383.1" text-anchor="end" class="small">_outputs_input.70</text>
<rect x="425.1" y="373.3" width="83.9" height="14.1" fill="#dc2626" rx="3"/>
<text x="419.1" y="384.0" text-anchor="end" class="small">0.52x</text>
<text x="157" y="411.2" text-anchor="end" class="small">_outputs_input.33</text>
<rect x="505.6" y="401.4" width="3.5" height="14.1" fill="#dc2626" rx="3"/>
<text x="499.6" y="412.1" text-anchor="end" class="small">0.97x</text>
<text x="157" y="439.4" text-anchor="end" class="small">_outputs_input.132</text>
<rect x="507.8" y="429.5" width="1.3" height="14.1" fill="#dc2626" rx="3"/>
<text x="501.8" y="440.2" text-anchor="end" class="small">0.99x</text>
<text x="157" y="467.5" text-anchor="end" class="small">_outputs_3356</text>
<rect x="508.8" y="457.7" width="1.0" height="14.1" fill="#dc2626" rx="3"/>
<text x="502.8" y="468.3" text-anchor="end" class="small">1.00x</text>
<text x="157" y="495.6" text-anchor="end" class="small">_outputs_input.11</text>
<rect x="509.1" y="485.8" width="159.3" height="14.1" fill="#16a34a" rx="3"/>
<text x="674.4" y="496.5" text-anchor="start" class="small">3.43x</text>
<text x="157" y="523.8" text-anchor="end" class="small">_outputs_input.138</text>
<rect x="509.1" y="513.9" width="172.0" height="14.1" fill="#16a34a" rx="3"/>
<text x="687.1" y="524.6" text-anchor="start" class="small">3.78x</text>
<text x="157" y="551.9" text-anchor="end" class="small">_outputs_input.15</text>
<rect x="509.1" y="542.0" width="176.6" height="14.1" fill="#16a34a" rx="3"/>
<text x="691.7" y="552.7" text-anchor="start" class="small">3.91x</text>
<text x="157" y="580.0" text-anchor="end" class="small">_outputs_input.135</text>
<rect x="509.1" y="570.2" width="180.7" height="14.1" fill="#16a34a" rx="3"/>
<text x="695.8" y="580.8" text-anchor="start" class="small">4.04x</text>
<text x="157" y="608.1" text-anchor="end" class="small">_outputs_input.131</text>
<rect x="509.1" y="598.3" width="222.3" height="14.1" fill="#16a34a" rx="3"/>
<text x="737.4" y="609.0" text-anchor="start" class="small">5.57x</text>
<text x="157" y="636.2" text-anchor="end" class="small">_outputs_input.83</text>
<rect x="509.1" y="626.4" width="226.8" height="14.1" fill="#16a34a" rx="3"/>
<text x="741.9" y="637.1" text-anchor="start" class="small">5.77x</text>
<text x="157" y="664.4" text-anchor="end" class="small">_outputs_input.80</text>
<rect x="509.1" y="654.5" width="252.3" height="14.1" fill="#16a34a" rx="3"/>
<text x="767.4" y="665.2" text-anchor="start" class="small">7.03x</text>
<text x="157" y="692.5" text-anchor="end" class="small">_outputs_input.43</text>
<rect x="509.1" y="682.7" width="276.5" height="14.1" fill="#16a34a" rx="3"/>
<text x="791.5" y="693.3" text-anchor="start" class="small">8.47x</text>
<text x="157" y="720.6" text-anchor="end" class="small">_outputs_input.39</text>
<rect x="509.1" y="710.8" width="316.8" height="14.1" fill="#16a34a" rx="3"/>
<text x="831.8" y="721.5" text-anchor="start" class="small">11.56x</text>
<text x="157" y="748.8" text-anchor="end" class="small">_outputs_input.76</text>
<rect x="509.1" y="738.9" width="458.6" height="14.1" fill="#16a34a" rx="3"/>
<text x="973.7" y="749.6" text-anchor="start" class="small">34.61x</text>
</svg>
