<svg xmlns="http://www.w3.org/2000/svg" width="1050" height="560" viewBox="0 0 1050 560">
<rect width="100%" height="100%" fill="#ffffff"/>
<style>
text { font-family: "Noto Sans CJK SC", "Microsoft YaHei", Arial, sans-serif; fill: #1f2937; }
.title { font-size: 24px; font-weight: 700; }
.label { font-size: 14px; }
.small { font-size: 12px; fill: #4b5563; }
.axis { stroke: #9ca3af; stroke-width: 1; }
.grid { stroke: #e5e7eb; stroke-width: 1; }
</style>
<text x="130" y="45" class="title">CloudCast 已完成运行：最佳成本越低越好</text>
<text x="130" y="70" class="small">种子成本=1035；论文最好=657；本地数值来自已完成 30 轮 JSON。</text>
<line x1="130" y1="445.0" x2="1010" y2="445.0" class="grid"/>
<text x="118" y="449.0" text-anchor="end" class="small">0</text>
<line x1="130" y1="381.5" x2="1010" y2="381.5" class="grid"/>
<text x="118" y="385.5" text-anchor="end" class="small">200</text>
<line x1="130" y1="318.0" x2="1010" y2="318.0" class="grid"/>
<text x="118" y="322.0" text-anchor="end" class="small">400</text>
<line x1="130" y1="254.4" x2="1010" y2="254.4" class="grid"/>
<text x="118" y="258.4" text-anchor="end" class="small">600</text>
<line x1="130" y1="190.9" x2="1010" y2="190.9" class="grid"/>
<text x="118" y="194.9" text-anchor="end" class="small">800</text>
<line x1="130" y1="127.4" x2="1010" y2="127.4" class="grid"/>
<text x="118" y="131.4" text-anchor="end" class="small">1000</text>
<line x1="130" y1="90" x2="130" y2="445" class="axis"/>
<line x1="130" y1="445" x2="1010" y2="445" class="axis"/>
<rect x="157.9" y="248.7" width="90.9" height="196.3" fill="#16a34a" rx="4"/>
<text x="203.3" y="240.7" text-anchor="middle" class="label">618</text>
<text x="203.3" y="469" text-anchor="middle" class="small">理论最优</text>
<rect x="304.5" y="236.3" width="90.9" height="208.7" fill="#f59e0b" rx="4"/>
<text x="350.0" y="228.3" text-anchor="middle" class="label">657</text>
<text x="350.0" y="469" text-anchor="middle" class="small">论文最好</text>
<rect x="451.2" y="245.9" width="90.9" height="199.1" fill="#2563eb" rx="4"/>
<text x="496.7" y="237.9" text-anchor="middle" class="label">627</text>
<text x="496.7" y="469" text-anchor="middle" class="small">完整 EoM（早期运行）</text>
<rect x="597.9" y="245.9" width="90.9" height="199.1" fill="#2563eb" rx="4"/>
<text x="643.3" y="237.9" text-anchor="middle" class="label">627</text>
<text x="643.3" y="469" text-anchor="middle" class="small">单智能体</text>
<rect x="744.5" y="214.4" width="90.9" height="230.6" fill="#2563eb" rx="4"/>
<text x="790.0" y="206.4" text-anchor="middle" class="label">726</text>
<text x="790.0" y="469" text-anchor="middle" class="small">完整 EoM（消融基准）</text>
<rect x="891.2" y="245.9" width="90.9" height="199.1" fill="#2563eb" rx="4"/>
<text x="936.7" y="237.9" text-anchor="middle" class="label">627</text>
<text x="936.7" y="469" text-anchor="middle" class="small">随机唤醒/弱拍卖</text>
</svg>
