<svg xmlns="http://www.w3.org/2000/svg" width="820" height="480" viewBox="0 0 820 480">
<rect width="100%" height="100%" fill="#ffffff"/>
<style>
text { font-family: "Noto Sans CJK SC", "Microsoft YaHei", Arial, sans-serif; fill: #1f2937; }
.title { font-size: 24px; font-weight: 700; }
.label { font-size: 14px; }
.small { font-size: 12px; fill: #4b5563; }
.axis { stroke: #9ca3af; stroke-width: 1; }
.grid { stroke: #e5e7eb; stroke-width: 1; }
</style>
<text x="150" y="42" class="title">原论文 CloudCast 对比：成本越低越好</text>
<text x="150" y="66" class="small">论文 Figure 4(c) 与正文给出的数值；不是 Table 2 机制消融。</text>
<line x1="150" y1="390.0" x2="780" y2="390.0" class="grid"/>
<text x="140" y="394.0" text-anchor="end" class="small">0</text>
<line x1="150" y1="331.3" x2="780" y2="331.3" class="grid"/>
<text x="140" y="335.3" text-anchor="end" class="small">200</text>
<line x1="150" y1="272.7" x2="780" y2="272.7" class="grid"/>
<text x="140" y="276.7" text-anchor="end" class="small">400</text>
<line x1="150" y1="214.0" x2="780" y2="214.0" class="grid"/>
<text x="140" y="218.0" text-anchor="end" class="small">600</text>
<line x1="150" y1="155.3" x2="780" y2="155.3" class="grid"/>
<text x="140" y="159.3" text-anchor="end" class="small">800</text>
<line x1="150" y1="96.7" x2="780" y2="96.7" class="grid"/>
<text x="140" y="100.7" text-anchor="end" class="small">1000</text>
<line x1="150" y1="82" x2="150" y2="390" class="axis"/>
<line x1="150" y1="390" x2="780" y2="390" class="axis"/>
<rect x="200.4" y="192.6" width="109.2" height="197.4" fill="#2563eb" rx="4"/>
<text x="255.0" y="184.6" text-anchor="middle" class="label">673</text>
<text x="255.0" y="415" text-anchor="middle" class="small">EoM</text>
<rect x="410.4" y="97.0" width="109.2" height="293.0" fill="#f59e0b" rx="4"/>
<text x="465.0" y="89.0" text-anchor="middle" class="label">999</text>
<text x="465.0" y="415" text-anchor="middle" class="small">best-of-N multi-agent</text>
<rect x="620.4" y="117.2" width="109.2" height="272.8" fill="#64748b" rx="4"/>
<text x="675.0" y="109.2" text-anchor="middle" class="label">930</text>
<text x="675.0" y="415" text-anchor="middle" class="small">OpenEvolve</text>
</svg>
